<?xml version="1.0" standalone="no"?>
<!DOCTYPE svg PUBLIC "-//W3C//DTD SVG 20010904//EN"
 "http://www.w3.org/TR/2001/REC-SVG-20010904/DTD/svg10.dtd">
<svg version="1.0" xmlns="http://www.w3.org/2000/svg"
 width="600.000000pt" height="600.000000pt" viewBox="0 0 600.000000 600.000000"
 preserveAspectRatio="xMidYMid meet">

<g transform="translate(0.000000,600.000000) scale(0.100000,-0.100000)"
fill="#000000" stroke="none">
<path d="M3135 5760 c3 -5 8 -10 11 -10 2 0 4 5 4 10 0 6 -5 10 -11 10 -5 0
-7 -4 -4 -10z"/>
<path d="M3723 5755 c-7 -12 -18 -13 -58 -6 -28 5 -55 5 -64 0 -9 -5 -41 -15
-71 -22 l-54 -13 82 -27 c45 -15 89 -27 99 -27 24 1 102 39 83 40 -8 1 -1 8
16 15 31 14 74 10 74 -6 0 -5 17 -16 38 -25 20 -9 31 -18 24 -21 -6 -3 -10 -9
-6 -14 3 -5 -5 -9 -18 -9 -18 0 -20 2 -8 10 13 8 12 10 -2 10 -17 0 -22 -10
-19 -36 1 -7 -9 -14 -23 -18 -36 -9 -42 -35 -7 -34 15 1 36 -4 47 -10 18 -11
17 -11 -7 -12 -35 0 -129 -29 -129 -39 0 -5 -23 -11 -50 -13 -55 -3 -69 8 -17
15 21 3 16 5 -18 5 -53 -1 -85 8 -85 23 0 6 23 7 53 5 28 -3 43 -3 32 0 -11 3
-37 12 -57 19 -21 8 -45 12 -55 8 -15 -5 -16 -3 -5 8 16 18 138 14 188 -7 33
-14 38 -14 53 0 14 15 13 16 -13 16 -33 0 -31 23 2 28 12 2 22 8 22 13 0 5 11
7 25 3 14 -3 25 -3 25 1 0 17 -37 34 -74 35 -33 0 -37 -2 -26 -15 17 -20 -1
-20 -119 5 -62 13 -97 17 -101 10 -4 -6 -13 -5 -26 5 -23 18 -89 21 -78 3 5
-8 -5 -9 -36 -5 -27 3 -38 2 -30 -3 8 -5 11 -12 7 -16 -8 -9 -66 17 -117 52
-28 18 -46 23 -80 20 -27 -2 -52 2 -63 9 -16 11 -22 11 -35 0 -10 -8 -43 -35
-74 -60 -32 -25 -58 -49 -59 -53 0 -4 -2 -17 -3 -30 -3 -25 -53 -82 -73 -82
-7 0 -13 -7 -13 -16 0 -8 -44 -59 -98 -112 -93 -92 -200 -235 -217 -292 -4
-14 -21 -54 -38 -89 -19 -40 -32 -85 -35 -120 -2 -31 -8 -68 -13 -82 -6 -15
-12 -48 -14 -75 -1 -27 -13 -98 -24 -159 -12 -60 -26 -155 -32 -210 -14 -141
-13 -649 1 -676 15 -26 6 -36 -16 -18 -16 13 -17 12 -11 -11 3 -14 9 -74 12
-135 9 -132 18 -158 35 -95 l12 45 13 -30 12 -30 8 40 c4 22 18 90 32 150 29
123 34 249 20 466 -8 109 -7 131 8 158 9 18 14 38 12 44 -2 7 2 27 9 46 8 18
14 44 14 58 0 13 5 33 11 44 7 14 7 24 0 33 -8 9 -5 24 9 52 21 39 23 48 36
139 9 64 102 281 151 352 38 56 102 114 147 134 14 7 26 16 26 20 0 5 15 16
33 24 17 8 50 26 72 39 49 29 141 76 150 76 4 0 5 -6 2 -14 -4 -10 3 -17 23
-21 32 -7 55 -29 46 -44 -3 -5 10 -9 32 -8 20 0 107 -2 192 -5 150 -5 284 8
314 30 23 17 93 31 133 26 23 -3 44 0 48 6 4 7 12 7 24 0 10 -5 63 -7 120 -4
86 4 101 2 101 -11 0 -8 5 -15 10 -15 6 0 63 -26 128 -57 98 -48 128 -69 184
-126 37 -38 80 -88 97 -113 38 -58 130 -294 142 -364 5 -30 19 -93 32 -140 25
-94 25 -164 -3 -453 -12 -121 -11 -153 3 -265 9 -70 19 -180 23 -244 3 -65 10
-118 15 -118 5 0 9 17 9 38 0 20 4 44 9 51 11 17 17 -2 25 -87 3 -29 8 -58 12
-64 11 -18 31 69 45 190 7 57 15 99 18 93 4 -6 8 13 9 42 1 29 -2 48 -6 42 -4
-5 -14 -11 -23 -11 -14 -1 -15 4 -7 35 13 51 32 399 31 576 0 139 -6 182 -34
270 -31 92 -51 187 -42 196 6 6 5 33 -4 77 -8 37 -20 93 -26 125 -7 37 -16 57
-25 57 -10 0 -12 7 -8 23 14 50 18 144 7 185 -10 34 -22 50 -59 75 -26 18 -70
55 -97 83 -52 53 -119 94 -153 94 -10 0 -35 18 -55 40 -19 22 -44 40 -54 40
-10 0 -29 7 -41 16 -12 8 -26 12 -32 9 -5 -3 -18 0 -29 7 -16 10 -23 10 -33 0
-17 -17 -47 -15 -54 3 -4 8 -15 15 -25 15 -10 0 -19 5 -19 10 0 6 -6 10 -13
10 -7 0 -36 16 -64 35 -30 20 -58 32 -67 29 -9 -3 -16 -1 -16 5 0 6 -9 11 -20
11 -11 0 -20 7 -20 15 0 8 -8 15 -18 15 -23 0 -82 29 -82 40 0 7 -88 40 -109
40 -5 0 -14 -7 -18 -15z m27 -25 c0 -5 -4 -10 -10 -10 -5 0 -10 5 -10 10 0 6
5 10 10 10 6 0 10 -4 10 -10z m-103 -6 c-3 -3 -12 -4 -19 -1 -8 3 -5 6 6 6 11
1 17 -2 13 -5z m73 -10 c0 -2 -12 -4 -26 -4 -14 0 -23 4 -20 9 6 8 46 4 46 -5z
m-550 -24 c0 -5 -5 -10 -11 -10 -5 0 -7 5 -4 10 3 6 8 10 11 10 2 0 4 -4 4
-10z m265 -40 c3 -5 -1 -10 -10 -10 -9 0 -13 5 -10 10 3 6 8 10 10 10 2 0 7
-4 10 -10z m-450 -40 c-3 -5 -15 -15 -26 -20 -15 -8 -19 -7 -19 4 0 8 10 17
23 19 12 2 23 5 25 6 2 0 0 -3 -3 -9z m698 3 c-7 -2 -19 -2 -25 0 -7 3 -2 5
12 5 14 0 19 -2 13 -5z m172 -23 c-3 -5 -12 -10 -20 -10 -8 0 -17 5 -20 10 -4
6 5 10 20 10 15 0 24 -4 20 -10z m-358 -6 c-3 -3 -12 -4 -19 -1 -8 3 -5 6 6 6
11 1 17 -2 13 -5z m772 -87 c-8 -7 -15 -25 -15 -41 1 -16 -4 -31 -11 -33 -7
-3 -9 3 -6 16 4 16 1 21 -13 21 -15 0 -15 3 6 25 13 14 31 25 39 25 15 -1 15
-2 0 -13z m138 -23 c-3 -3 -12 -4 -19 -1 -8 3 -5 6 6 6 11 1 17 -2 13 -5z"/>
<path d="M3314 4309 c-5 -8 -14 -25 -21 -39 -8 -18 -12 -20 -12 -7 -1 18 -16
23 -25 8 -4 -5 -24 -2 -47 7 -27 10 -43 12 -47 5 -7 -10 -28 -16 -132 -33
-143 -24 -239 -65 -240 -102 0 -10 -12 -24 -27 -32 -30 -15 -73 -60 -73 -76 0
-5 -9 -25 -20 -45 -11 -20 -20 -44 -20 -54 0 -10 -7 -24 -15 -31 -8 -7 -15
-21 -15 -31 0 -11 7 -19 15 -19 8 0 15 5 15 10 0 6 -6 10 -12 10 -9 0 -8 3 2
9 8 6 18 7 22 4 5 -2 14 0 21 5 8 6 23 5 42 -4 25 -10 27 -14 13 -19 -10 -4
-18 -13 -18 -19 0 -13 -32 -42 -65 -62 -30 -17 -32 -38 -4 -30 49 15 54 13 51
-19 -2 -16 -10 -34 -18 -38 -18 -10 -9 -27 16 -27 24 0 80 -32 80 -46 0 -6 7
-17 15 -24 15 -13 122 -40 170 -43 25 -2 30 -6 30 -27 0 -20 -6 -26 -30 -31
-16 -3 -40 -2 -53 3 -14 5 -32 4 -45 -3 l-21 -12 23 -8 c30 -12 193 -19 206
-10 5 4 29 13 51 19 25 7 49 23 58 37 9 14 22 25 28 25 14 0 120 91 163 139
16 19 36 48 44 65 7 17 17 40 22 51 5 11 8 70 6 131 -1 76 2 116 10 126 13 15
7 84 -8 94 -5 3 -9 14 -9 26 0 16 -5 19 -21 15 -15 -4 -19 -2 -15 9 8 21 -14
63 -38 70 -11 4 -26 14 -32 22 -9 13 -12 13 -20 1z m111 -289 c3 -5 1 -10 -4
-10 -6 0 -11 5 -11 10 0 6 2 10 4 10 3 0 8 -4 11 -10z m-471 -216 c3 -9 6 -23
6 -32 -1 -14 -4 -13 -19 5 -10 12 -22 19 -27 15 -5 -4 -2 1 5 11 17 21 27 22
35 1z m-74 -94 c0 -5 -7 -10 -16 -10 -8 0 -12 5 -9 10 3 6 10 10 16 10 5 0 9
-4 9 -10z m30 -30 c0 -5 -9 -10 -19 -10 -11 0 -23 5 -26 10 -4 6 5 10 19 10
14 0 26 -4 26 -10z"/>
<path d="M3951 4262 c-83 -3 -96 -13 -131 -89 -16 -35 -46 -162 -54 -223 -1
-8 -6 -24 -12 -35 -15 -26 1 -169 21 -207 8 -14 15 -33 15 -41 0 -9 14 -24 30
-34 17 -9 30 -25 30 -35 0 -25 19 -22 42 7 11 14 25 25 32 25 7 0 34 -18 59
-40 25 -22 48 -40 51 -40 4 0 19 -11 34 -25 15 -14 32 -25 38 -25 5 0 30 -9
54 -21 37 -18 57 -21 142 -17 95 4 135 16 106 34 -7 5 -17 9 -23 9 -24 0 -20
45 5 45 11 0 20 -4 20 -10 0 -5 10 -10 23 -9 12 0 16 3 10 6 -7 2 -13 12 -13
20 0 10 5 13 18 8 41 -17 52 -17 52 -1 0 9 6 16 14 16 7 0 16 9 19 20 4 16 10
19 29 12 25 -9 85 -8 95 2 4 3 1 17 -7 30 -11 21 -10 30 8 65 13 25 17 41 10
43 -6 2 -10 32 -10 73 2 96 -4 117 -38 140 -17 11 -26 24 -21 30 4 5 5 19 1
30 -4 11 -10 30 -15 43 -4 12 -10 22 -14 22 -3 0 -17 10 -31 21 -21 17 -22 20
-5 15 l20 -6 -20 15 c-11 8 -25 19 -31 24 -6 5 -42 24 -80 41 -75 36 -190 55
-263 46 -24 -3 -49 -2 -55 3 -15 12 -68 17 -155 13z"/>
<path d="M4460 3531 c0 -10 9 -21 20 -24 11 -3 20 -2 20 2 0 3 -9 14 -20 24
-19 16 -20 16 -20 -2z"/>
<path d="M3843 3343 c3 -10 8 -32 12 -49 4 -20 15 -35 30 -42 28 -13 65 -79
65 -117 0 -20 -5 -25 -25 -25 -14 0 -41 6 -59 14 -34 14 -31 15 -194 -24 -49
-12 -136 4 -126 24 3 6 -1 3 -9 -6 -8 -10 -20 -18 -28 -19 -9 0 -8 -3 3 -7 12
-5 14 -12 9 -21 -7 -11 -19 -7 -57 20 -27 19 -53 32 -59 30 -5 -2 -37 -10 -70
-18 -33 -9 -64 -19 -69 -24 -5 -4 -18 -3 -29 2 -16 9 -18 18 -13 50 7 46 35
110 55 125 8 6 11 16 7 22 -11 18 -23 14 -31 -10 -6 -20 -8 -20 -12 -5 -6 21
-19 22 -27 2 -3 -8 -11 -15 -18 -15 -7 -1 -31 -9 -53 -20 -22 -11 -44 -19 -49
-20 -14 0 -131 -121 -131 -135 0 -15 -34 -49 -42 -42 -3 4 -15 2 -25 -4 -15
-8 -17 -14 -9 -22 8 -8 2 -20 -21 -44 -18 -18 -38 -33 -45 -33 -7 0 -13 -4
-13 -9 0 -5 -7 -17 -16 -26 -11 -10 -17 -39 -20 -90 -3 -68 4 -92 21 -65 13
21 26 -3 26 -48 -1 -26 2 -73 5 -104 5 -47 3 -58 -9 -58 -7 0 -22 -9 -32 -20
-10 -11 -29 -19 -44 -19 l-26 2 28 4 c41 6 32 20 -13 20 -36 0 -40 -2 -40 -26
0 -14 -5 -33 -10 -41 -8 -13 -10 -13 -10 0 0 10 -3 11 -12 2 -8 -8 -8 -15 0
-25 9 -10 9 -16 0 -25 -8 -8 -8 -15 0 -25 9 -10 9 -16 0 -25 -9 -9 -9 -12 1
-12 8 0 11 -6 7 -15 -3 -9 1 -16 9 -16 8 -1 20 -3 25 -4 6 -1 19 -3 30 -4 11
0 20 -6 20 -12 0 -6 -7 -8 -16 -5 -8 3 -12 2 -9 -4 9 -14 32 -13 37 2 2 6 10
8 17 4 9 -6 9 -11 0 -22 -10 -12 -9 -13 4 -9 8 4 18 1 22 -4 3 -6 11 -9 16 -6
5 3 6 -1 3 -9 -7 -17 11 -22 21 -6 3 6 13 10 21 10 25 0 15 -37 -19 -67 -18
-16 -31 -36 -29 -46 5 -24 14 -21 47 13 16 17 34 30 39 30 6 0 2 -7 -9 -16
-11 -8 -19 -21 -17 -29 1 -8 -15 -19 -40 -27 -47 -16 -68 -14 -68 7 0 7 -7 15
-15 19 -8 3 -15 10 -15 17 0 6 -11 20 -25 31 -14 11 -25 25 -25 31 0 7 -16 32
-35 56 -39 49 -42 56 -19 47 9 -3 12 -2 9 4 -4 6 -13 9 -22 8 -10 -2 -28 19
-49 57 -72 128 -119 270 -131 394 -3 30 -12 61 -20 69 -8 9 -11 21 -7 31 10
21 14 128 4 110 -14 -26 -21 -133 -11 -179 52 -252 158 -513 256 -635 38 -46
55 -78 55 -98 0 -8 -27 -45 -60 -81 -59 -65 -99 -134 -135 -229 -10 -27 -26
-52 -34 -55 -9 -3 -32 -16 -51 -28 -19 -12 -57 -25 -85 -29 -73 -10 -316 -73
-340 -88 -11 -8 -58 -29 -104 -47 -47 -19 -108 -52 -136 -74 -145 -116 -172
-133 -238 -153 -29 -8 -90 -35 -135 -59 -46 -25 -116 -57 -155 -71 -110 -39
-145 -60 -171 -102 -14 -21 -58 -73 -99 -115 l-74 -76 84 -80 c99 -94 306
-250 448 -339 120 -76 364 -196 495 -244 228 -85 492 -149 730 -179 136 -17
544 -17 680 0 846 105 1590 539 2084 1215 150 206 296 474 377 691 l33 89 -28
22 c-18 14 -24 25 -17 29 6 4 11 3 11 -2 0 -14 32 -24 42 -14 5 5 10 27 12 49
4 38 2 41 -35 62 -32 18 -55 22 -125 22 -82 0 -91 -3 -194 -51 -60 -27 -112
-50 -116 -50 -4 0 -24 18 -44 40 -35 38 -40 40 -96 40 -76 0 -265 -45 -281
-67 -12 -16 -13 -16 -13 0 0 20 -49 35 -59 18 -9 -14 -91 18 -91 36 0 7 -7 10
-17 6 -12 -5 -14 -3 -8 7 6 10 4 12 -8 7 -10 -3 -17 -3 -17 1 0 5 -16 14 -37
21 -38 14 -113 81 -113 101 0 20 32 74 71 119 22 24 39 51 39 60 0 9 7 24 15
35 10 13 11 24 4 37 -7 13 -5 27 5 47 8 16 17 48 20 72 3 24 14 52 24 64 25
27 36 70 17 62 -10 -3 -11 2 -6 22 4 15 6 50 4 77 -1 28 1 59 6 70 23 53 31
77 31 95 0 10 6 21 13 23 7 4 6 6 -5 6 -9 1 -19 -7 -22 -16 -3 -10 -3 -2 -1
17 14 105 16 129 15 175 0 27 -5 54 -9 58 -11 11 -18 -21 -27 -118 -3 -44 -10
-82 -14 -85 -7 -5 -19 -92 -24 -175 -1 -22 -5 -47 -9 -56 -5 -9 -7 -20 -6 -25
6 -24 -15 -135 -27 -145 -8 -6 -14 -30 -14 -55 0 -23 -4 -45 -8 -48 -4 -2 -9
-18 -10 -34 -2 -29 -13 -54 -41 -97 -10 -16 -21 -20 -47 -17 -21 3 -34 10 -34
19 0 20 19 53 30 53 15 0 12 -28 -2 -33 -7 -2 -2 -2 12 0 32 5 50 29 50 64 0
15 5 31 11 35 6 3 9 19 5 35 -3 15 -2 29 3 31 4 2 11 16 15 32 6 24 5 27 -6
18 -7 -6 -30 -9 -51 -8 -41 4 -58 -13 -50 -45 4 -13 0 -19 -10 -19 -8 0 -17
-6 -20 -12 -3 -10 -10 -8 -25 6 -20 17 -22 17 -28 2 -4 -9 -4 -20 0 -23 3 -4
-1 -14 -10 -24 -13 -14 -21 -16 -35 -8 -13 7 -19 6 -19 -2 0 -11 -39 -48 -52
-49 -10 0 -68 -60 -68 -71 0 -5 -7 -9 -15 -9 -12 0 -13 4 -5 19 5 11 10 30 9
43 0 13 5 41 11 63 6 22 14 53 17 69 3 16 14 37 24 47 11 11 19 30 19 44 0 28
7 30 34 10 15 -11 16 -17 8 -28 -12 -14 -7 -27 9 -27 5 0 5 8 2 17 -5 13 -2
15 11 10 11 -4 19 -1 23 10 4 9 15 25 26 36 13 13 17 26 13 43 -5 18 -2 24 10
24 8 0 14 6 12 13 -4 10 -17 13 -46 8 -4 0 -6 -17 -4 -37 3 -28 1 -35 -9 -32
-20 7 -23 42 -6 75 18 34 4 53 -38 53 -14 0 -25 3 -25 8 0 4 -23 20 -50 35
-28 16 -65 43 -83 61 -17 18 -42 38 -54 45 -13 6 -23 18 -23 26 0 8 -11 17
-25 21 -19 5 -23 9 -15 19 8 10 4 14 -15 19 -28 7 -33 21 -10 30 25 9 17 23
-15 23 -32 0 -61 28 -53 50 3 7 -2 13 -10 13 -8 0 -17 5 -19 10 -2 6 -13 12
-25 14 -11 3 -34 12 -50 20 -107 60 -105 60 -100 39z m-549 -685 l25 -32 12
27 c15 34 33 34 66 1 25 -25 25 -25 40 -5 19 28 81 28 111 1 20 -19 24 -20 44
-5 12 8 42 15 65 15 37 0 45 -4 55 -25 14 -30 19 -31 35 -5 7 10 22 24 33 30
17 9 22 7 30 -15 11 -30 26 -32 35 -6 6 21 38 36 54 27 15 -10 22 -85 10 -109
-17 -31 -29 -37 -56 -24 -19 8 -26 8 -33 -3 -5 -8 -26 -14 -50 -14 -22 -1 -44
-7 -49 -14 -11 -18 -103 -27 -129 -13 -14 7 -23 8 -27 1 -4 -6 -30 -10 -58
-10 -29 1 -63 1 -75 1 -34 -1 -45 8 -31 25 9 11 7 14 -15 14 -16 0 -26 -5 -26
-15 0 -22 -28 -18 -40 6 -9 16 -17 19 -41 14 -27 -6 -31 -3 -45 30 -14 34 -13
61 2 118 8 26 30 21 58 -15z m-158 -184 c14 -18 41 -43 59 -54 18 -11 44 -31
57 -45 14 -14 54 -37 89 -51 35 -14 68 -30 74 -35 5 -5 17 -9 27 -9 10 0 18
-4 18 -10 0 -5 -6 -7 -14 -4 -8 3 -43 -2 -77 -10 -34 -9 -70 -14 -80 -11 -23
8 -82 -54 -68 -71 13 -15 -9 -23 -44 -17 -15 3 -27 1 -27 -5 0 -6 10 -12 23
-14 12 -2 22 -10 23 -18 2 -30 4 -32 19 -20 13 10 19 8 36 -14 11 -14 29 -26
40 -26 11 0 22 -7 25 -15 4 -9 19 -15 41 -15 29 0 33 -3 24 -13 -6 -8 -8 -17
-4 -21 4 -3 -8 -12 -25 -18 -18 -7 -32 -17 -32 -23 0 -6 -13 -24 -30 -40 -34
-32 -37 -26 -15 35 20 56 19 58 -10 56 -14 0 -25 -7 -25 -13 0 -7 -11 -13 -24
-13 -17 0 -26 -7 -30 -25 -8 -30 -26 -33 -26 -4 0 14 -5 19 -14 16 -9 -4 -13
-1 -10 6 2 7 -7 17 -20 23 -20 9 -28 8 -40 -4 -12 -12 -16 -13 -16 -3 0 11 -3
11 -15 1 -9 -7 -18 -10 -22 -6 -10 9 24 76 42 82 8 4 15 10 15 15 0 4 -7 6
-15 3 -9 -4 -15 0 -15 10 0 9 -8 16 -17 16 -17 1 -17 1 0 14 9 7 17 16 17 20
0 13 44 66 55 66 7 0 20 9 30 20 10 12 24 19 31 16 6 -2 17 1 23 7 9 9 14 9
19 1 5 -9 10 -8 19 2 8 8 9 15 3 19 -6 3 -10 0 -10 -7 0 -10 -2 -10 -9 1 -6 9
-18 12 -36 7 -24 -6 -27 -5 -22 13 3 12 1 19 -4 15 -5 -3 -9 -12 -9 -20 0 -8
-7 -14 -15 -14 -8 0 -15 -5 -15 -10 0 -6 -11 -22 -24 -35 -13 -13 -26 -29 -28
-36 -3 -9 -9 -8 -26 2 -18 11 -26 11 -42 2 -12 -8 -21 -9 -25 -3 -8 14 3 30
21 30 8 0 14 5 14 11 0 11 -25 9 -65 -6 -14 -5 -11 1 10 19 17 14 40 25 53 26
12 0 22 5 22 10 0 6 -12 10 -26 10 l-25 0 28 29 c18 18 30 25 35 17 5 -8 11
-7 20 2 9 9 9 12 0 12 -7 0 -12 7 -12 15 0 25 -24 17 -68 -21 -48 -41 -57 -28
-12 17 17 18 35 27 41 23 9 -5 10 2 6 24 -6 27 -4 32 13 32 11 0 20 5 20 10 0
6 -6 10 -12 10 -9 0 -9 3 -2 8 6 4 13 14 16 23 4 10 19 16 37 17 24 0 37 -7
57 -34z m1464 -45 c0 -5 -7 -9 -15 -9 -8 0 -15 7 -15 15 0 9 6 12 15 9 8 -4
15 -10 15 -15z m-536 -16 c-1 -16 -2 -36 -3 -46 0 -10 -7 -17 -13 -16 -35 4
-47 -2 -50 -28 -2 -18 -12 -32 -28 -40 -24 -11 -140 -26 -140 -18 0 23 29 56
57 66 18 6 38 19 43 30 6 10 15 19 20 19 5 0 23 14 40 30 40 40 77 41 74 3z
m492 -29 c-5 -13 -10 -14 -18 -6 -6 6 -8 18 -4 28 5 13 10 14 18 6 6 -6 8 -18
4 -28z m-1816 -34 c0 -5 -5 -10 -11 -10 -5 0 -7 5 -4 10 3 6 8 10 11 10 2 0 4
-4 4 -10z m1832 -32 c-6 -6 -15 -8 -19 -4 -4 4 -1 11 7 16 19 12 27 3 12 -12z
m-602 -78 c0 -5 -2 -10 -4 -10 -3 0 -8 5 -11 10 -3 6 -1 10 4 10 6 0 11 -4 11
-10z m670 -25 c0 -8 -4 -15 -10 -15 -5 0 -10 7 -10 15 0 8 5 15 10 15 6 0 10
-7 10 -15z m-510 -25 c0 -5 -7 -10 -16 -10 -8 0 -12 5 -9 10 3 6 10 10 16 10
5 0 9 -4 9 -10z m-43 -6 c-3 -3 -12 -4 -19 -1 -8 3 -5 6 6 6 11 1 17 -2 13 -5z
m113 -69 c0 -7 -6 -15 -13 -18 -10 -4 -13 2 -9 19 4 24 22 24 22 -1z m-1250
-34 c0 -5 -9 -12 -20 -15 -62 -18 -65 -18 -54 -7 6 6 21 13 34 16 12 2 25 7
28 10 8 8 12 6 12 -4z m73 3 c6 -7 -4 -18 -38 -44 -19 -14 -19 -14 -5 4 12 15
12 20 2 23 -6 3 -10 9 -6 14 6 10 37 12 47 3z m2327 -14 c-8 -5 -19 -10 -25
-10 -5 0 -3 5 5 10 8 5 20 10 25 10 6 0 3 -5 -5 -10z m-1466 -45 c3 -9 0 -15
-8 -15 -7 0 -13 7 -13 15 0 8 4 15 8 15 4 0 9 -7 13 -15z m-384 -5 c0 -5 -7
-10 -15 -10 -18 0 -19 -12 -3 -28 8 -8 8 -15 -2 -27 -11 -13 -8 -15 19 -15 19
0 30 -4 26 -10 -10 -16 -41 -11 -59 9 -10 11 -27 21 -39 23 -11 2 -22 8 -24
15 -3 7 3 9 16 6 12 -3 21 -1 21 6 0 6 -4 11 -10 11 -17 0 -11 18 8 23 32 9
62 7 62 -3z m330 -15 c7 -9 10 -19 6 -23 -4 -4 -14 2 -22 12 -9 13 -14 15 -14
6 0 -7 -3 -11 -6 -7 -7 7 4 27 15 27 5 0 14 -7 21 -15z m-310 -36 c0 -11 -4
-17 -10 -14 -5 3 -10 13 -10 21 0 8 5 14 10 14 6 0 10 -9 10 -21z m234 -19
c25 0 18 -5 -16 -14 -24 -5 -28 -3 -28 16 0 17 3 19 12 10 7 -7 21 -12 32 -12z
m-68 -17 c-4 -16 -9 -47 -13 -70 -7 -53 -23 -57 -20 -5 2 20 -1 46 -6 56 -7
15 -5 23 9 33 28 20 37 16 30 -14z m818 -23 c64 -71 108 -172 177 -410 23 -80
46 -148 52 -152 19 -12 -14 -40 -40 -33 -18 4 -23 1 -23 -14 0 -10 -7 -21 -15
-25 -15 -6 -14 -8 -59 164 -33 128 -71 240 -101 300 -14 28 -20 50 -14 52 6 2
5 14 -5 33 -8 16 -13 31 -11 33 7 7 41 -38 65 -85 23 -47 47 -60 28 -15 -7 15
-34 59 -60 98 -47 68 -57 94 -39 94 5 0 25 -18 45 -40z m-1114 20 c0 -5 7 -10
15 -10 8 0 15 5 15 10 0 6 5 10 10 10 6 0 10 -7 10 -15 0 -8 7 -15 15 -15 9 0
18 -7 21 -15 9 -22 28 -18 64 12 38 32 77 39 82 15 4 -17 -21 -74 -44 -103
-15 -19 -64 -34 -50 -16 4 7 7 18 6 25 -1 6 -2 17 -3 23 -1 7 -17 10 -41 7
-22 -2 -40 0 -40 5 0 5 -11 6 -25 3 -20 -5 -25 -3 -25 14 0 11 -4 20 -9 20 -5
0 -11 9 -14 20 -3 11 -1 20 4 20 5 0 9 -4 9 -10z m-40 -7 c0 -5 -7 -17 -15
-27 -14 -18 -15 -18 -21 -2 -4 11 -1 22 7 27 17 11 29 11 29 2z m384 -59 c9
-24 7 -28 -9 -14 -17 14 -20 30 -6 30 5 0 12 -7 15 -16z m666 -4 c0 -11 -7
-20 -15 -20 -18 0 -19 12 -3 28 16 16 18 15 18 -8z m-877 -17 c8 -8 -23 -32
-42 -33 -11 0 -10 5 4 20 19 21 28 24 38 13z m-22 -56 c-1 -12 -15 -9 -19 4
-3 6 1 10 8 8 6 -3 11 -8 11 -12z m-572 -53 c12 -15 21 -37 21 -50 0 -13 4
-24 9 -24 5 0 11 -9 14 -21 3 -12 10 -18 15 -15 12 7 72 -22 72 -35 0 -6 -9
-7 -20 -4 -11 4 -20 2 -20 -4 0 -16 45 -42 63 -36 8 4 18 1 23 -6 5 -9 2 -10
-9 -6 -27 10 -20 -9 8 -21 29 -13 33 -46 8 -61 -21 -11 -8 -31 23 -35 11 -2
21 -11 23 -21 2 -13 -1 -16 -14 -11 -11 4 -15 2 -13 -6 3 -7 28 -15 57 -18 34
-4 58 -12 66 -23 7 -9 17 -17 24 -17 6 0 11 -5 11 -10 0 -6 -5 -9 -11 -8 -6 2
-13 -2 -15 -8 -6 -15 28 -52 44 -47 6 3 12 -1 12 -7 0 -7 11 -26 25 -42 24
-28 25 -32 10 -48 -9 -10 -24 -16 -36 -13 -10 3 -19 1 -19 -4 0 -5 -17 -7 -37
-5 l-37 5 29 -27 c15 -14 38 -26 51 -26 12 0 25 -4 28 -8 7 -11 -56 -2 -71 10
-8 6 -24 5 -46 -3 -31 -11 -38 -10 -62 9 -15 12 -41 22 -57 22 -21 0 -31 6
-35 20 -3 11 -12 20 -19 20 -20 0 -43 52 -26 58 24 8 11 44 -32 88 -53 55 -54
61 -103 427 -6 46 15 51 46 11z m-101 -542 c2 -54 0 -114 -6 -135 -6 -20 -6
-37 -2 -37 5 0 15 27 22 60 6 33 16 60 21 60 9 0 4 -134 -8 -186 -5 -25 -11
-31 -27 -26 -10 2 -17 10 -14 17 9 24 -8 26 -20 3 -24 -45 -28 10 -10 156 9
78 16 157 16 176 0 27 3 31 12 22 7 -7 14 -52 16 -110z"/>
<path d="M3070 2400 c-13 -9 -13 -10 0 -10 8 0 22 5 30 10 13 9 13 10 0 10 -8
0 -22 -5 -30 -10z"/>
<path d="M4560 1710 c0 -5 5 -10 10 -10 6 0 10 5 10 10 0 6 -4 10 -10 10 -5 0
-10 -4 -10 -10z"/>
<path d="M4590 1631 c0 -6 5 -13 10 -16 6 -3 10 1 10 9 0 9 -4 16 -10 16 -5 0
-10 -4 -10 -9z"/>
<path d="M4620 1544 c0 -8 5 -12 10 -9 6 4 8 11 5 16 -9 14 -15 11 -15 -7z"/>
<path d="M4660 1390 c0 -5 5 -10 11 -10 5 0 7 5 4 10 -3 6 -8 10 -11 10 -2 0
-4 -4 -4 -10z"/>
<path d="M2810 994 c0 -8 5 -12 10 -9 6 4 8 11 5 16 -9 14 -15 11 -15 -7z"/>
<path d="M2392 3151 c2 -96 6 -125 17 -129 12 -4 13 13 7 108 -10 162 -27 177
-24 21z"/>
<path d="M4872 3160 c0 -14 2 -19 5 -12 2 6 2 18 0 25 -3 6 -5 1 -5 -13z"/>
<path d="M4395 2607 c-4 -10 -5 -21 -1 -24 10 -10 18 4 13 24 -4 17 -4 17 -12
0z"/>
<path d="M2575 2519 c-11 -17 0 -20 21 -4 17 13 17 14 2 15 -9 0 -20 -5 -23
-11z"/>
</g>
</svg>
