<?xml version="1.0" standalone="no"?>
<!DOCTYPE svg PUBLIC "-//W3C//DTD SVG 20010904//EN"
 "http://www.w3.org/TR/2001/REC-SVG-20010904/DTD/svg10.dtd">
<svg version="1.0" xmlns="http://www.w3.org/2000/svg"
 width="600.000000pt" height="600.000000pt" viewBox="0 0 600.000000 600.000000"
 preserveAspectRatio="xMidYMid meet">

<g transform="translate(0.000000,600.000000) scale(0.100000,-0.100000)"
fill="#000000" stroke="none">
<path d="M2635 5975 c-901 -117 -1685 -614 -2171 -1376 -85 -134 -221 -411
-278 -565 -58 -157 -109 -352 -142 -539 -36 -203 -46 -622 -19 -840 79 -659
354 -1249 797 -1710 l120 -125 28 15 c16 8 71 47 122 86 51 39 118 83 148 98
114 58 290 121 420 151 195 45 206 48 238 75 16 13 47 63 71 111 23 47 62 112
86 144 70 91 71 96 20 178 -57 91 -123 223 -169 337 -39 98 -100 327 -111 415
-3 30 -19 98 -35 150 -40 136 -50 190 -50 283 0 45 -5 120 -10 167 -5 47 -13
144 -16 215 -6 120 -5 135 17 195 23 62 24 74 21 300 -3 283 12 465 58 680 6
25 19 106 31 180 26 173 32 195 81 310 72 167 146 274 294 426 33 33 85 103
116 155 46 78 77 113 177 206 134 125 163 143 270 167 140 31 223 31 346 2
216 -51 421 -125 600 -216 102 -52 217 -102 286 -124 79 -25 138 -51 185 -82
38 -25 94 -59 126 -75 31 -15 82 -52 115 -81 32 -29 85 -76 117 -103 87 -72
110 -127 112 -271 2 -78 10 -145 27 -220 14 -60 28 -143 31 -185 5 -73 11
-100 59 -269 26 -92 29 -294 9 -606 -11 -179 -10 -209 4 -270 18 -79 14 -174
-17 -344 -11 -58 -28 -170 -39 -250 -12 -80 -25 -161 -30 -180 -5 -19 -21 -88
-34 -152 -14 -64 -33 -136 -44 -160 -22 -51 -38 -103 -52 -176 -12 -64 -42
-132 -82 -188 -53 -74 -32 -99 123 -155 97 -35 143 -36 275 -8 130 27 217 23
296 -16 l56 -28 88 37 c136 59 247 68 367 29 27 -8 53 -11 57 -7 24 25 137
340 174 489 67 264 86 430 86 745 0 430 -57 742 -202 1100 -167 412 -389 744
-704 1050 -469 457 -1070 744 -1724 825 -154 19 -579 19 -725 0z"/>
<path d="M3345 5665 c-8 -13 -19 -14 -62 -6 -41 8 -58 7 -80 -4 -15 -8 -40
-15 -55 -15 -15 0 -30 -4 -33 -10 -3 -5 -16 -10 -28 -11 -17 -1 -16 -3 8 -9
17 -5 63 -18 104 -30 41 -11 86 -18 100 -15 27 5 60 -9 48 -21 -6 -7 -56 1
-187 27 -40 8 -55 8 -58 -1 -3 -7 -11 -6 -27 4 -13 9 -43 19 -67 22 -41 7 -42
6 -28 -11 14 -17 13 -18 -35 -12 -45 7 -47 6 -30 -8 18 -13 19 -14 2 -15 -19
0 -106 41 -149 71 -29 21 -58 25 -58 9 0 -7 -6 -7 -17 -2 -10 5 -24 7 -30 5
-7 -3 -22 2 -34 10 -19 14 -23 13 -38 -1 -10 -10 -39 -35 -65 -57 -71 -60 -76
-65 -76 -86 0 -23 -46 -99 -60 -99 -6 0 -10 -7 -10 -15 0 -8 -3 -14 -7 -13 -5
2 -60 -49 -123 -112 -128 -128 -209 -238 -252 -344 -16 -38 -33 -75 -38 -81
-17 -20 -40 -108 -40 -152 0 -23 -5 -54 -12 -70 -6 -15 -15 -59 -19 -98 -4
-38 -17 -119 -29 -180 -11 -60 -26 -159 -32 -220 -11 -118 -12 -714 -2 -754 6
-21 4 -22 -15 -16 -21 6 -22 4 -16 -28 4 -18 12 -90 19 -158 13 -127 16 -131
41 -54 6 18 8 17 20 -10 l12 -30 6 25 c3 14 15 72 28 130 50 232 57 314 39
465 -17 140 -16 246 4 283 9 18 14 37 11 41 -3 5 0 22 6 38 14 34 29 112 33
173 1 25 9 57 18 70 8 14 20 61 27 105 14 94 101 311 163 407 42 65 133 157
156 158 6 0 21 9 32 20 11 11 34 26 52 35 18 8 51 26 73 39 53 32 160 86 169
86 4 0 6 -5 4 -12 -3 -7 14 -21 36 -32 23 -12 41 -28 40 -36 -1 -12 14 -15 70
-17 39 -1 130 -5 201 -8 72 -2 135 -5 140 -5 26 -1 154 28 185 42 77 35 123
41 164 23 10 -4 21 -4 25 1 3 5 66 9 139 9 117 0 135 -2 143 -17 6 -10 14 -18
20 -18 5 0 66 -27 135 -60 111 -54 133 -69 201 -138 41 -42 88 -96 104 -118
43 -62 143 -313 161 -404 10 -51 12 -61 34 -150 26 -103 27 -172 5 -411 -19
-208 -20 -233 -6 -354 8 -71 20 -201 26 -287 7 -87 16 -158 21 -158 4 0 8 19
9 43 0 23 4 51 9 62 7 19 8 18 13 -5 3 -14 8 -51 12 -84 6 -60 18 -96 27 -80
10 17 28 111 38 204 6 52 15 112 21 133 12 45 5 60 -27 54 -18 -3 -22 -1 -14
8 14 16 35 454 33 665 -1 119 -6 182 -18 225 -9 33 -23 85 -31 115 -8 30 -24
87 -37 127 -18 57 -21 74 -11 88 13 17 8 55 -7 55 -5 0 -7 10 -4 23 4 13 -1
44 -10 70 -9 26 -13 57 -10 67 5 15 2 20 -11 20 -14 0 -16 7 -9 53 24 164 5
230 -81 288 -32 22 -74 59 -92 82 -34 43 -120 96 -158 97 -11 0 -40 20 -63 45
-25 27 -51 45 -64 45 -13 0 -33 7 -45 16 -12 8 -26 13 -31 10 -4 -3 -16 1 -26
8 -15 11 -23 11 -46 -3 -25 -14 -29 -14 -46 0 -10 9 -31 19 -46 23 -15 4 -25
10 -22 15 2 5 -7 12 -22 16 -16 3 -30 10 -33 14 -11 15 -69 51 -83 51 -21 0
-77 30 -77 42 0 5 -6 8 -14 5 -8 -3 -20 0 -26 8 -7 8 -22 17 -33 21 -12 4 -26
12 -32 19 -9 11 -101 45 -122 45 -4 0 -13 -7 -18 -15z m35 -30 c8 -10 18 -12
29 -6 20 10 38 4 62 -20 11 -11 25 -19 33 -19 7 0 19 -7 26 -15 9 -11 9 -15 1
-15 -7 0 -9 -4 -6 -10 3 -6 -4 -10 -17 -10 -18 0 -20 2 -8 10 13 8 12 10 -3
10 -11 0 -19 -10 -23 -28 -4 -19 -15 -32 -35 -39 -31 -12 -41 -37 -11 -31 9 2
16 10 15 16 -2 8 9 11 30 11 23 -1 26 -3 10 -6 -28 -5 -30 -23 -4 -23 11 0 23
-4 26 -10 3 -6 -4 -10 -17 -10 -24 0 -161 -38 -143 -39 6 -1 3 -6 -5 -11 -8
-5 -37 -9 -65 -9 -46 2 -47 2 -15 8 45 8 24 23 -28 20 -20 -1 -47 1 -60 5 -40
13 -13 24 51 20 55 -3 57 -2 22 6 -74 16 -136 36 -130 42 9 9 184 -1 205 -12
23 -13 70 -13 70 -1 0 5 -10 11 -22 13 -35 5 -34 28 2 28 18 0 29 4 25 10 -4
6 6 10 24 10 16 0 33 5 36 10 3 6 -1 10 -9 10 -9 0 -16 5 -16 10 0 6 -20 10
-44 10 -62 0 -70 20 -9 21 l48 1 -75 19 c-67 17 -70 18 -25 14 28 -2 44 -2 38
1 -15 6 -17 24 -4 24 5 0 14 -7 21 -15z m-123 -1 c-3 -3 -12 -4 -19 -1 -8 3
-5 6 6 6 11 1 17 -2 13 -5z m-232 -84 c3 -5 -1 -10 -9 -10 -9 0 -16 5 -16 10
0 6 4 10 9 10 6 0 13 -4 16 -10z m-509 -55 c-27 -21 -53 -20 -36 0 7 8 22 15
34 15 21 -1 21 -1 2 -15z m579 -15 c3 -5 -1 -10 -9 -10 -9 0 -16 5 -16 10 0 6
4 10 9 10 6 0 13 -4 16 -10z m860 -90 c3 -5 -1 -10 -9 -10 -11 0 -15 -10 -13
-37 1 -24 -3 -38 -12 -41 -10 -3 -12 0 -8 13 5 11 1 18 -11 22 -17 4 -17 7 7
34 27 31 36 35 46 19z m142 -36 c-3 -3 -12 -4 -19 -1 -8 3 -5 6 6 6 11 1 17
-2 13 -5z m-130 -80 c-3 -3 -12 -4 -19 -1 -8 3 -5 6 6 6 11 1 17 -2 13 -5z"/>
<path d="M2940 5600 c0 -5 5 -10 11 -10 5 0 7 5 4 10 -3 6 -8 10 -11 10 -2 0
-4 -4 -4 -10z"/>
<path d="M2896 4072 c-4 -4 -15 -23 -23 -42 l-15 -35 -10 25 c-8 21 -11 23
-18 9 -9 -15 -13 -15 -55 0 -33 11 -48 13 -53 5 -7 -11 -29 -16 -119 -30 -150
-22 -292 -78 -293 -117 0 -9 -13 -25 -30 -35 -16 -10 -39 -31 -52 -47 -26 -34
-68 -120 -68 -142 0 -8 -9 -26 -20 -40 -11 -14 -20 -32 -20 -39 0 -8 9 -14 20
-14 11 0 20 5 20 10 0 6 -5 10 -11 10 -5 0 -7 5 -4 10 4 6 14 10 23 8 10 -1
22 1 29 5 13 8 63 -11 63 -25 0 -4 -7 -8 -16 -8 -8 0 -13 -4 -9 -9 5 -10 -53
-71 -68 -71 -4 0 -18 -9 -30 -21 l-22 -21 52 7 53 7 -4 -33 c-2 -17 -11 -36
-20 -41 -21 -12 -11 -28 17 -28 29 0 76 -32 91 -61 6 -13 23 -27 36 -31 62
-17 147 -33 167 -30 29 3 51 -34 31 -53 -17 -16 -78 -28 -78 -15 0 6 5 10 12
10 6 0 8 3 5 6 -4 4 -13 2 -20 -4 -8 -7 -16 -9 -19 -7 -3 3 -18 1 -33 -5 -46
-18 -15 -33 64 -32 39 1 82 -3 96 -8 19 -7 36 -4 71 10 25 11 54 20 64 20 11
0 31 16 46 35 14 19 31 35 37 35 12 0 114 85 172 145 23 23 47 57 54 76 7 19
17 43 21 54 15 36 18 76 9 148 -8 72 3 144 25 159 6 4 5 12 -3 22 -7 8 -10 20
-6 26 4 6 0 22 -9 35 -9 13 -16 31 -16 40 0 18 -12 19 -28 3 -9 -9 -12 -7 -12
13 0 38 -11 69 -25 69 -7 0 -23 11 -37 25 -14 14 -28 21 -32 17z m119 -321 c3
-5 1 -12 -5 -16 -5 -3 -10 1 -10 9 0 18 6 21 15 7z m-521 -247 c3 -9 6 -23 6
-32 -1 -14 -3 -14 -18 4 -10 11 -24 18 -32 16 -13 -5 -13 -3 -1 11 17 21 37
22 45 1z m-79 -104 c3 -5 -3 -10 -14 -10 -12 0 -21 5 -21 10 0 6 6 10 14 10 8
0 18 -4 21 -10z m30 -30 c-3 -5 -17 -10 -31 -10 -13 0 -24 5 -24 10 0 6 14 10
31 10 17 0 28 -4 24 -10z"/>
<path d="M3552 4012 c-39 -4 -75 -37 -100 -94 -20 -47 -36 -99 -34 -110 4 -17
-32 -173 -40 -179 -10 -7 -5 -133 8 -184 4 -16 13 -39 20 -50 8 -11 14 -27 14
-36 0 -9 16 -29 35 -43 20 -15 33 -31 30 -36 -3 -5 0 -12 6 -16 6 -3 22 5 35
20 34 35 53 33 107 -14 25 -22 49 -40 54 -40 5 0 22 -13 38 -30 16 -16 34 -30
40 -30 6 0 33 -10 61 -23 43 -20 63 -23 155 -22 59 1 111 5 118 9 14 9 15 36
1 37 -5 1 -16 2 -22 3 -19 2 -22 42 -4 49 9 4 28 0 43 -8 15 -8 30 -12 33 -8
3 3 -1 8 -7 10 -14 5 -18 33 -5 33 4 0 16 -7 26 -15 26 -20 33 -19 41 5 3 11
12 20 20 20 7 0 15 10 18 21 4 16 11 20 24 15 22 -9 18 -9 71 -7 38 1 42 3 42
26 0 14 -4 25 -10 25 -15 0 -12 20 10 65 10 22 15 42 10 45 -4 3 -8 25 -8 50
-1 119 -8 152 -38 179 -19 17 -28 34 -26 48 2 12 -2 32 -10 45 -7 13 -12 27
-13 33 0 5 -15 19 -33 31 -20 14 -27 24 -20 27 8 2 2 10 -14 17 -16 7 -28 16
-28 20 0 4 -24 19 -52 33 -111 52 -144 60 -261 61 -62 1 -114 4 -117 8 -6 8
-166 15 -218 10z"/>
<path d="M2088 3423 c6 -2 18 -2 25 0 6 3 1 5 -13 5 -14 0 -19 -2 -12 -5z"/>
<path d="M4160 3201 c0 -10 9 -21 20 -24 22 -6 27 12 8 31 -17 17 -28 15 -28
-7z"/>
<path d="M3480 2992 c0 -39 21 -90 39 -95 24 -6 81 -94 81 -125 0 -31 -23 -37
-79 -23 -61 16 -61 16 -176 -9 -86 -18 -107 -20 -154 -10 -46 10 -56 10 -69
-4 -9 -9 -12 -16 -6 -16 6 0 11 -7 11 -15 0 -8 -2 -15 -5 -15 -12 0 -112 62
-112 70 0 8 -5 7 -122 -29 -88 -28 -102 -22 -95 40 6 50 35 117 61 138 17 14
11 41 -10 41 -8 0 -14 -9 -14 -20 0 -11 -4 -20 -10 -20 -5 0 -10 8 -10 17 0
14 -3 13 -20 -5 -12 -12 -26 -22 -33 -22 -7 -1 -30 -9 -52 -20 -22 -11 -46
-19 -53 -20 -14 0 -92 -78 -92 -92 0 -4 -6 -8 -13 -8 -13 0 -43 -40 -39 -53 4
-13 -37 -47 -51 -42 -7 3 -21 -1 -32 -10 -19 -14 -19 -16 -3 -25 15 -9 13 -15
-21 -45 -21 -19 -42 -35 -46 -35 -4 0 -19 -13 -33 -28 -24 -26 -27 -38 -29
-110 -2 -45 0 -82 3 -82 3 0 14 5 25 10 21 12 22 8 19 -66 -1 -23 3 -45 9 -49
6 -3 10 -30 10 -60 -1 -42 -6 -56 -19 -60 -10 -3 -25 -14 -35 -25 -18 -19 -72
-29 -61 -11 3 5 15 7 26 4 11 -3 20 -1 20 5 0 10 -69 23 -82 15 -5 -2 -8 -19
-8 -37 0 -39 -8 -50 -27 -35 -10 9 -13 7 -13 -9 0 -12 4 -24 10 -27 6 -4 5
-14 -3 -27 -10 -16 -9 -22 1 -25 9 -4 10 -8 2 -18 -7 -9 -8 -15 -1 -19 6 -4 8
-13 4 -21 -4 -11 3 -15 25 -15 21 0 32 -6 37 -19 7 -22 32 -35 40 -21 4 6 -1
10 -9 10 -8 0 -18 5 -22 11 -5 9 1 10 22 5 40 -10 53 -24 34 -37 -12 -8 -10
-9 8 -4 14 4 22 2 22 -5 0 -7 7 -10 14 -7 11 4 13 1 9 -10 -5 -13 -2 -15 13
-9 32 13 38 12 42 -7 4 -19 -31 -64 -59 -76 -12 -5 -13 -10 -3 -29 11 -23 12
-23 30 -5 26 25 64 53 47 33 -7 -8 -13 -22 -13 -31 0 -12 -16 -23 -50 -34 -50
-17 -70 -14 -70 9 0 7 -19 33 -42 58 -40 43 -109 133 -150 196 -33 50 -97 186
-92 194 3 4 1 8 -4 8 -9 0 -32 73 -53 167 -6 29 -15 51 -19 48 -9 -6 32 -189
47 -207 6 -7 14 -24 18 -38 4 -14 18 -49 31 -78 13 -29 23 -55 24 -57 1 -18
79 -155 117 -206 25 -34 52 -78 60 -97 13 -32 13 -36 -13 -70 -15 -19 -47 -57
-71 -84 -45 -51 -88 -128 -118 -215 -16 -45 -26 -57 -74 -87 -33 -20 -76 -37
-106 -41 -27 -4 -113 -23 -189 -42 -122 -30 -191 -55 -371 -133 -48 -20 -255
-181 -251 -195 2 -10 147 -131 203 -169 359 -245 600 -362 943 -460 280 -80
476 -107 770 -106 344 0 599 35 930 127 162 45 253 80 425 164 167 81 216 109
360 207 243 165 399 304 636 568 44 50 137 176 202 274 62 94 167 290 167 311
0 22 -63 39 -146 39 -84 0 -92 -2 -194 -50 -99 -45 -173 -70 -210 -69 -8 0 -5
4 8 9 30 13 28 23 -15 60 -37 33 -37 33 -117 27 -88 -7 -266 -51 -277 -69 -5
-8 -13 -6 -25 6 -11 12 -26 16 -43 13 -17 -4 -51 6 -98 29 -40 19 -75 34 -77
34 -3 0 -29 14 -57 31 -37 22 -54 27 -59 18 -11 -17 -29 -2 -23 20 3 10 -3 30
-12 45 -23 34 -9 74 50 146 25 30 46 59 46 65 1 5 3 24 5 40 9 79 17 121 26
126 10 7 16 30 17 70 1 15 14 41 29 59 28 31 29 36 30 143 0 69 5 113 11 115
6 2 11 17 11 32 0 16 4 31 9 34 12 8 20 66 9 66 -4 0 -8 -7 -8 -15 0 -8 -4
-15 -10 -15 -13 0 -12 2 1 37 19 50 28 231 12 256 -12 19 -22 -22 -28 -114 -4
-52 -10 -103 -15 -114 -5 -11 -12 -45 -15 -75 -3 -30 -8 -80 -11 -110 -3 -30
-10 -60 -15 -65 -4 -6 -8 -20 -8 -30 2 -55 -13 -138 -30 -172 -11 -21 -22 -67
-26 -103 -7 -60 -31 -126 -58 -154 -6 -7 -23 -10 -39 -8 -21 3 -28 0 -28 -12
0 -9 3 -15 8 -13 4 1 8 -2 10 -8 1 -5 -5 -10 -14 -10 -12 0 -17 11 -20 40 -3
43 17 82 36 70 8 -5 5 -11 -7 -21 -16 -13 -15 -14 12 -7 38 8 54 29 55 70 0
17 5 35 11 39 7 4 9 20 6 39 -4 21 -1 35 6 38 7 3 13 17 15 32 2 23 0 26 -13
15 -8 -7 -22 -9 -32 -5 -38 16 -64 11 -69 -12 -3 -12 -3 -26 0 -32 10 -16 -43
-46 -57 -32 -6 6 -19 11 -29 11 -15 0 -17 -5 -12 -25 4 -18 1 -32 -11 -45 -16
-17 -19 -18 -33 -4 -14 14 -16 14 -27 -5 -6 -12 -14 -19 -18 -15 -3 4 -9 -1
-13 -10 -3 -9 -15 -16 -25 -16 -10 0 -19 -4 -19 -9 0 -14 -65 -81 -79 -81 -8
0 -9 5 -3 18 6 9 13 42 17 72 4 30 14 67 21 82 8 15 14 38 14 51 0 13 11 33
24 46 16 15 22 29 18 46 -6 31 17 34 44 4 15 -16 16 -22 5 -28 -8 -5 -10 -14
-7 -20 11 -17 26 -13 19 6 -5 13 -2 15 11 10 12 -5 19 0 26 17 4 13 16 26 24
29 11 4 16 19 16 47 0 30 4 40 16 40 21 0 13 23 -10 26 -34 5 -42 -5 -38 -46
3 -24 0 -40 -7 -40 -19 0 -23 46 -7 85 9 21 16 39 16 40 0 8 -60 26 -68 21 -6
-3 -12 1 -16 9 -3 8 -12 15 -20 15 -8 0 -21 6 -28 13 -24 21 -77 57 -86 57 -5
0 -14 11 -20 25 -6 14 -27 33 -47 42 -21 10 -35 24 -35 35 0 13 -10 20 -30 25
-28 5 -29 7 -13 19 17 13 17 13 -2 14 -20 0 -45 17 -45 31 0 4 10 10 23 14 19
6 17 8 -17 16 -41 10 -67 34 -59 56 3 7 -2 13 -10 13 -8 0 -17 6 -20 14 -3 7
-19 16 -36 19 -17 4 -49 18 -71 32 -64 40 -90 48 -90 27z m-303 -668 c-3 -3
-12 -4 -19 -1 -8 3 -5 6 6 6 11 1 17 -2 13 -5z m-309 -84 c21 -36 29 -37 44
-5 15 32 43 32 74 -2 l25 -27 15 22 c20 29 91 30 127 2 23 -18 27 -19 53 -5
16 8 46 15 66 15 30 0 42 -6 59 -29 l22 -30 33 36 c32 33 54 37 54 9 0 -8 7
-19 15 -26 11 -9 15 -9 15 -1 0 18 50 60 65 55 22 -9 29 -97 11 -133 -18 -33
-27 -37 -57 -21 -14 8 -25 7 -41 -5 -13 -8 -38 -15 -57 -15 -19 0 -39 -7 -45
-15 -15 -21 -115 -31 -145 -16 -17 10 -26 10 -37 1 -9 -8 -29 -10 -58 -6 -26
4 -47 3 -50 -3 -7 -11 -56 -4 -71 10 -6 6 -5 13 5 19 21 13 5 23 -25 16 -14
-4 -25 -13 -25 -21 0 -26 -32 -13 -43 18 -7 19 -24 22 -46 8 -48 -30 -74 63
-45 162 8 27 43 20 62 -13z m-177 -202 c26 -36 42 -50 79 -70 14 -7 40 -27 58
-45 18 -17 64 -44 103 -59 38 -15 72 -31 75 -36 3 -4 14 -8 25 -8 10 0 19 -5
19 -10 0 -6 -6 -10 -12 -8 -20 3 -108 -12 -134 -24 -17 -8 -27 -8 -39 2 -13
11 -21 7 -50 -26 -22 -25 -32 -45 -29 -57 5 -16 1 -18 -32 -15 -23 2 -39 -2
-42 -10 -2 -7 6 -12 23 -12 21 0 25 -4 20 -19 -7 -24 11 -37 30 -21 12 10 20
6 41 -19 14 -17 30 -29 35 -26 4 3 17 -3 29 -15 11 -11 33 -20 49 -20 24 0 28
-3 24 -24 -3 -14 -18 -29 -39 -39 -19 -9 -34 -22 -34 -28 0 -13 -50 -62 -56
-56 -2 2 3 23 11 47 22 62 20 79 -7 72 -13 -3 -25 -9 -28 -13 -3 -5 -17 -10
-30 -12 -14 -2 -25 -8 -25 -13 0 -5 -6 -18 -13 -29 -11 -20 -12 -20 -18 3 -5
18 -12 22 -27 18 -15 -4 -17 -2 -8 7 17 17 13 27 -9 27 -11 0 -20 5 -20 12 0
6 -10 3 -21 -8 -16 -14 -23 -16 -26 -6 -4 10 -8 10 -19 2 -7 -7 -18 -9 -23 -5
-13 7 24 81 48 95 15 9 14 9 -1 10 -10 0 -18 7 -18 15 0 8 -7 15 -15 15 -23 0
-18 15 10 30 14 7 25 17 25 22 0 5 -6 6 -12 2 -7 -4 -3 3 10 15 12 12 22 26
22 31 0 6 7 10 15 10 8 0 24 9 35 20 11 11 28 20 38 20 23 1 56 26 43 34 -6 4
-22 4 -36 0 -18 -5 -25 -2 -25 9 0 8 6 18 13 20 9 4 9 6 -1 6 -8 1 -16 -8 -19
-19 -3 -11 -12 -20 -19 -20 -8 0 -14 -6 -14 -13 0 -8 -13 -25 -29 -39 -16 -15
-31 -32 -33 -40 -4 -10 -9 -9 -25 5 -24 21 -37 22 -53 2 -14 -16 -30 -11 -30
10 0 7 12 16 26 19 20 5 24 10 15 19 -8 8 -18 7 -40 -6 -46 -27 -59 -19 -21
13 19 16 45 30 58 30 12 0 22 5 22 10 0 6 -10 10 -21 10 -21 0 -21 1 5 25 14
13 26 30 27 37 0 7 4 5 8 -5 6 -17 8 -17 20 -3 9 11 10 16 2 16 -6 0 -11 7
-11 15 0 8 -7 15 -15 15 -8 0 -15 8 -15 18 0 10 -5 23 -11 29 -9 9 -5 14 15
19 27 6 36 23 14 25 -10 0 -10 2 0 6 6 2 12 13 12 24 0 15 7 19 39 19 33 0 43
-5 62 -32z m1032 -65 c3 -16 2 -32 -3 -37 -5 -5 -6 -15 -3 -22 4 -10 -3 -14
-24 -14 -25 0 -32 -5 -39 -32 -11 -39 -46 -59 -106 -60 -24 -1 -48 -5 -55 -10
-16 -13 -27 26 -13 52 6 11 17 20 25 20 24 0 65 23 65 36 0 7 10 16 22 20 12
4 31 18 42 31 18 24 48 41 72 42 7 1 14 -11 17 -26z m545 -25 c-2 -13 -7 -23
-13 -23 -5 0 -11 10 -13 23 -2 15 2 22 13 22 11 0 15 -7 13 -22z m-1722 -24
c-3 -9 -6 -18 -6 -20 0 -2 -5 -4 -12 -4 -7 0 -22 -12 -35 -27 -17 -22 -22 -24
-23 -11 0 18 55 78 73 78 5 0 6 -7 3 -16z m-290 -41 c-10 -10 -19 5 -10 18 6
11 8 11 12 0 2 -7 1 -15 -2 -18z m2039 -14 c-7 -11 -35 -12 -35 -1 0 4 9 8 20
9 11 1 18 -2 15 -8z m-675 -94 c0 -8 -2 -15 -4 -15 -2 0 -6 7 -10 15 -3 8 -1
15 4 15 6 0 10 -7 10 -15z m165 -55 c3 -5 -1 -10 -10 -10 -9 0 -13 5 -10 10 3
6 8 10 10 10 2 0 7 -4 10 -10z m-38 -6 c-3 -3 -12 -4 -19 -1 -8 3 -5 6 6 6 11
1 17 -2 13 -5z m123 -74 c0 -10 -6 -20 -13 -23 -10 -4 -12 3 -9 24 5 31 22 30
22 -1z m-1423 4 c-3 -3 -12 -4 -19 -1 -8 3 -5 6 6 6 11 1 17 -2 13 -5z m35
-56 c-6 -6 -15 -8 -19 -4 -4 4 -1 11 7 16 19 12 27 3 12 -12z m82 13 c7 -10
-42 -61 -58 -61 -6 0 -3 7 7 15 13 9 17 20 12 34 -5 17 -2 21 14 21 11 0 22
-4 25 -9z m-128 -26 c-26 -19 -42 -19 -26 0 7 8 20 15 29 15 13 -1 13 -3 -3
-15z m1084 -47 c0 -5 -6 -8 -14 -8 -9 0 -12 7 -9 21 4 16 8 17 14 7 5 -7 9
-16 9 -20z m-438 -9 c-22 -8 -31 -29 -13 -29 5 0 11 -10 13 -22 2 -16 10 -23
26 -24 34 -2 37 -11 6 -18 -20 -5 -31 -2 -46 13 -10 12 -27 21 -36 21 -10 0
-27 7 -38 15 -18 14 -18 14 9 15 15 0 27 5 27 10 0 6 -4 10 -10 10 -21 0 -9
19 18 28 17 6 34 6 47 -1 19 -10 19 -10 -3 -18z m381 -3 c22 -17 22 -26 -3
-26 -12 0 -20 7 -20 18 0 14 -2 15 -10 2 -5 -8 -10 -10 -10 -4 0 25 17 29 43
10z m117 -6 c0 -5 -2 -10 -4 -10 -3 0 -8 5 -11 10 -3 6 -1 10 4 10 6 0 11 -4
11 -10z m-460 -30 c0 -11 -4 -20 -10 -20 -5 0 -10 9 -10 20 0 11 5 20 10 20 6
0 10 -9 10 -20z m185 -47 c-4 -21 -10 -42 -13 -48 -3 -5 -5 -24 -3 -42 1 -19
-2 -33 -8 -33 -12 0 -13 4 -15 60 0 19 -5 41 -10 49 -6 10 -2 19 15 32 35 27
42 23 34 -18z m84 21 c7 -6 -2 -11 -31 -18 -24 -5 -28 -3 -28 14 0 17 4 19 28
14 15 -4 29 -8 31 -10z m820 -41 c49 -57 109 -177 144 -288 59 -185 87 -281
87 -297 0 -9 7 -24 16 -33 16 -15 15 -18 -4 -37 -17 -18 -23 -19 -36 -8 -14
11 -16 9 -16 -8 0 -12 -9 -26 -19 -32 -17 -9 -21 -4 -35 43 -9 28 -25 93 -37
142 -26 111 -73 254 -106 318 -13 27 -22 56 -19 64 3 8 -1 27 -9 44 -9 16 -12
29 -8 29 12 0 52 -51 75 -97 12 -24 25 -43 30 -43 4 0 8 2 8 4 0 13 -67 128
-96 165 -32 42 -44 81 -25 81 5 0 28 -21 50 -47z m-1231 16 c8 -20 10 -20 24
-5 21 20 28 20 28 1 0 -8 7 -15 15 -15 8 0 20 -9 27 -20 17 -27 30 -25 69 12
39 37 85 46 92 17 5 -19 -20 -78 -45 -110 -7 -8 -23 -18 -35 -21 -20 -5 -22
-3 -17 19 l7 26 -31 -19 c-29 -16 -30 -19 -16 -35 10 -11 12 -19 5 -24 -6 -3
-16 6 -21 21 -12 30 0 50 35 64 17 8 16 9 -10 11 -16 1 -36 1 -43 0 -8 -1 -19
3 -27 9 -9 8 -15 8 -20 0 -10 -17 -25 -11 -25 10 0 11 -6 23 -14 26 -21 8 -29
54 -9 54 2 0 7 -10 11 -21z m-48 -13 c0 -20 -26 -40 -35 -26 -10 16 2 40 20
40 8 0 15 -6 15 -14z m428 -57 c7 -12 11 -24 8 -27 -6 -6 -35 27 -36 41 0 14
15 7 28 -14z m733 -32 c-4 -26 -6 -28 -9 -9 -2 12 -8 20 -13 17 -12 -8 -11 2
3 25 16 25 26 8 19 -33z m-1624 -109 c6 -7 14 -24 18 -38 15 -54 37 -91 51
-86 7 3 16 1 19 -4 4 -6 14 -10 25 -10 10 0 20 -7 24 -15 4 -11 -2 -15 -22
-15 l-27 -1 28 -25 c16 -14 36 -22 45 -20 10 3 24 1 32 -5 12 -9 11 -10 -7 -6
-13 3 -23 1 -23 -4 0 -5 6 -9 14 -9 40 0 63 -68 26 -77 -37 -10 -22 -27 42
-47 11 -3 15 -11 12 -21 -4 -9 -13 -14 -21 -11 -9 4 -13 1 -11 -6 3 -8 29 -15
62 -18 35 -3 62 -11 69 -21 7 -8 20 -18 30 -22 9 -3 17 -11 17 -17 0 -6 -4 -8
-10 -5 -21 13 -28 -7 -12 -35 19 -34 32 -39 32 -12 0 9 9 -2 20 -25 10 -24 23
-43 28 -43 5 0 12 -9 15 -19 6 -25 -24 -54 -47 -45 -9 3 -16 1 -16 -5 0 -6 -3
-10 -7 -10 -5 1 -23 1 -40 0 l-33 -1 21 -21 c11 -11 36 -23 55 -26 19 -3 37
-9 39 -13 5 -9 -67 4 -84 15 -7 4 -30 2 -51 -5 -35 -12 -41 -11 -66 9 -14 11
-38 21 -52 21 -15 0 -39 15 -63 39 -39 38 -48 64 -29 76 22 13 8 48 -35 90
-54 52 -68 93 -85 243 -6 59 -19 139 -27 179 -18 82 -13 109 15 94 10 -5 23
-16 29 -23z m-113 -608 c1 -150 -24 -283 -53 -278 -17 4 -18 45 -1 148 5 30
14 102 21 159 15 130 32 115 33 -29z m48 -78 c4 -28 -5 -116 -18 -179 -4 -22
-12 -33 -23 -33 -29 0 -30 8 -9 88 17 68 23 97 27 140 2 23 19 12 23 -16z"/>
<path d="M2637 1963 c-12 -12 -7 -22 8 -17 8 4 15 10 15 15 0 11 -14 12 -23 2z"/>
<path d="M2670 1919 c0 -5 5 -7 10 -4 6 3 10 8 10 11 0 2 -4 4 -10 4 -5 0 -10
-5 -10 -11z"/>
<path d="M2665 1840 c-3 -5 -1 -10 4 -10 6 0 11 5 11 10 0 6 -2 10 -4 10 -3 0
-8 -4 -11 -10z"/>
<path d="M2790 1810 c0 -5 5 -10 11 -10 5 0 7 5 4 10 -3 6 -8 10 -11 10 -2 0
-4 -4 -4 -10z"/>
<path d="M4275 1190 c3 -5 11 -10 16 -10 6 0 7 5 4 10 -3 6 -11 10 -16 10 -6
0 -7 -4 -4 -10z"/>
<path d="M4310 1101 c0 -5 5 -13 10 -16 6 -3 10 -2 10 4 0 5 -4 13 -10 16 -5
3 -10 2 -10 -4z"/>
<path d="M4340 1004 c0 -8 5 -12 10 -9 6 4 8 11 5 16 -9 14 -15 11 -15 -7z"/>
<path d="M4350 960 c0 -5 5 -10 11 -10 5 0 7 5 4 10 -3 6 -8 10 -11 10 -2 0
-4 -4 -4 -10z"/>
<path d="M4381 864 c0 -11 3 -14 6 -6 3 7 2 16 -1 19 -3 4 -6 -2 -5 -13z"/>
<path d="M4385 831 c-3 -5 -1 -12 5 -16 5 -3 10 1 10 9 0 18 -6 21 -15 7z"/>
<path d="M4390 790 c0 -5 5 -10 11 -10 5 0 7 5 4 10 -3 6 -8 10 -11 10 -2 0
-4 -4 -4 -10z"/>
<path d="M1868 2825 c0 -50 0 -97 1 -105 1 -8 3 -28 4 -44 1 -16 8 -31 16 -34
12 -4 13 16 7 124 -8 154 -25 190 -28 59z"/>
<path d="M1896 2584 c-3 -9 -6 -39 -6 -67 0 -38 3 -48 10 -37 8 12 12 120 5
120 -2 0 -6 -7 -9 -16z"/>
<path d="M1894 2400 c4 -28 10 -58 13 -67 12 -32 23 39 12 79 -15 57 -33 48
-25 -12z"/>
<path d="M4088 2183 c-3 -13 -2 -26 4 -29 14 -9 16 -2 8 26 -6 25 -6 25 -12 3z"/>
<path d="M2080 2085 c-14 -16 -10 -18 14 -9 9 3 16 10 16 15 0 14 -16 11 -30
-6z"/>
<path d="M2125 1860 c-4 -6 3 -10 14 -10 25 0 27 6 6 13 -8 4 -17 2 -20 -3z"/>
</g>
</svg>
